<svg width="467" height="437" viewBox="0 0 467 437" fill="none" xmlns="http://www.w3.org/2000/svg">
<g opacity="0.5">
<path fill-rule="evenodd" clip-rule="evenodd" d="M363.12 107.725C441.478 88.7225 525.868 98.1445 589.575 147.661C655.676 199.038 695.389 279.697 692.053 363.388C688.797 445.077 634.579 510.016 572.991 563.672C504.504 623.339 427.469 686.445 337.803 672.017C241.249 656.48 156.873 584.132 124.965 491.579C95.7387 406.805 143.155 320.617 190.402 244.465C231.149 178.791 288.058 125.929 363.12 107.725Z" fill="#BFBEFC"/>
<path d="M317.503 189.509C315.4 187.736 312.51 187.22 309.923 188.155L292.938 194.294C290.351 195.229 288.459 197.474 287.975 200.182L284.8 217.961C284.316 220.669 285.314 223.429 287.417 225.203L301.226 236.842C303.33 238.615 306.219 239.131 308.807 238.196L325.791 232.057C328.379 231.122 330.27 228.878 330.754 226.169L333.93 208.391C334.414 205.682 333.416 202.922 331.312 201.149L317.503 189.509Z" fill="#00FE80"/>
<circle cx="362.151" cy="66.4302" r="11.5508" transform="rotate(-11.7949 362.151 66.4302)" fill="#E61B00"/>
<path d="M207.261 400.012C205.314 399.157 203.043 400.042 202.188 401.989L189.8 430.19C188.944 432.137 189.829 434.409 191.776 435.264L219.978 447.652C221.925 448.507 224.196 447.622 225.051 445.675L237.439 417.474C238.294 415.527 237.409 413.256 235.463 412.4L207.261 400.012Z" fill="#E3026F"/>
<path d="M425.524 247.365C423.674 247.464 422.625 249.529 423.636 251.081L440.919 277.628C441.93 279.18 444.242 279.056 445.081 277.405L459.43 249.163C460.269 247.512 459.005 245.571 457.156 245.67L425.524 247.365Z" fill="#EE6D00"/>
<path fill-rule="evenodd" clip-rule="evenodd" d="M453.625 376.605C456.615 390.92 447.226 404.991 432.655 408.034C418.084 411.077 403.849 401.938 400.86 387.623C397.87 373.308 407.259 359.237 421.83 356.194C436.401 353.151 450.636 362.289 453.625 376.605ZM444.203 378.572C446.073 387.527 440.212 396.623 430.687 398.611C421.162 400.6 412.152 394.61 410.282 385.656C408.412 376.701 414.273 367.605 423.797 365.616C433.322 363.627 442.333 369.617 444.203 378.572Z" fill="#0576F0"/>
<path d="M173.36 224.676C173.648 222.569 172.173 220.627 170.066 220.34C167.959 220.052 166.018 221.527 165.73 223.634L162.969 243.866C162.682 245.973 164.156 247.914 166.263 248.201L182.68 250.442L180.44 266.859C180.152 268.966 181.627 270.907 183.734 271.194L200.151 273.435L197.91 289.851C197.623 291.958 199.097 293.899 201.204 294.187C203.311 294.474 205.252 293 205.54 290.893L208.301 270.661C208.589 268.554 207.114 266.613 205.007 266.325L188.59 264.085L190.831 247.668C191.118 245.561 189.643 243.62 187.536 243.333L171.12 241.092L173.36 224.676Z" fill="#AA33FF"/>
<path d="M66.4002 393.615C64.6056 394.075 63.9816 396.305 65.2768 397.629L87.4262 420.275C88.7215 421.599 90.9647 421.025 91.4639 419.241L100.001 388.736C100.501 386.952 98.8816 385.297 97.087 385.756L66.4002 393.615Z" fill="#EE6D00"/>
</g>
</svg>
