<svg width="11" height="11" viewBox="0 0 11 11" fill="none" xmlns="http://www.w3.org/2000/svg">
<path d="M2.79687 0.624206C2.2447 0.612817 1.78785 1.0512 1.77646 1.60337C1.76507 2.15554 2.20346 2.61239 2.75562 2.62378L2.79687 0.624206ZM9.24253 1.75737L10.2423 1.73674C10.2313 1.20061 9.79929 0.768637 9.26316 0.757579L9.24253 1.75737ZM8.37612 8.24428C8.38751 8.79645 8.84436 9.23483 9.39653 9.22344C9.9487 9.21205 10.3871 8.7552 10.3757 8.20303L8.37612 8.24428ZM9.3674 3.07663C9.75792 2.68611 9.75792 2.05294 9.3674 1.66242C8.97687 1.27189 8.34371 1.27189 7.95318 1.66242L9.3674 3.07663ZM0.536546 9.07906C0.146021 9.46958 0.146021 10.1027 0.536546 10.4933C0.92707 10.8838 1.56023 10.8838 1.95076 10.4933L0.536546 9.07906ZM2.75562 2.62378L9.22191 2.75715L9.26316 0.757579L2.79687 0.624206L2.75562 2.62378ZM8.24275 1.77799L8.37612 8.24428L10.3757 8.20303L10.2423 1.73674L8.24275 1.77799ZM7.95318 1.66242L0.536546 9.07906L1.95076 10.4933L9.3674 3.07663L7.95318 1.66242Z" fill="#D9DBE9"/>
</svg>
