<svg width="238" height="280" viewBox="0 0 238 280" fill="none" xmlns="http://www.w3.org/2000/svg">
<g opacity="0.4">
<path fill-rule="evenodd" clip-rule="evenodd" d="M42.7414 10.5433C56.4373 9.2413 70.9446 13.5573 79.4545 24.3692C87.9139 35.1169 87.0357 49.7341 84.1037 63.0946C81.1319 76.6369 76.0575 90.8918 63.5461 96.8614C51.0733 102.812 36.7104 98.0098 24.503 91.5316C13.0022 85.4284 2.59979 76.1551 0.356519 63.3281C-1.78187 51.1007 6.07665 40.2843 13.848 30.6062C21.5722 20.9868 30.4613 11.7108 42.7414 10.5433Z" fill="#EBECFE"/>
</g>
<g opacity="0.4">
<path fill-rule="evenodd" clip-rule="evenodd" d="M140.477 88.3581C169.113 89.5701 190.845 110.947 208.668 133.378C226.427 155.73 242.391 181.705 236.901 209.713C231.243 238.573 208.516 261.213 181.378 272.592C155.869 283.287 126.242 280.588 102.777 265.947C81.9265 252.937 77.3335 227.294 70.8184 203.608C63.6957 177.713 50.7417 150.269 64.6355 127.282C80.0939 101.706 110.603 87.0937 140.477 88.3581Z" fill="#EBECFE"/>
</g>
<path fill-rule="evenodd" clip-rule="evenodd" d="M216.457 55.2924C216.457 70.3214 204.056 82.5047 188.759 82.5047C173.461 82.5047 161.061 70.3214 161.061 55.2924C161.061 40.2635 173.461 28.0801 188.759 28.0801C204.056 28.0801 216.457 40.2635 216.457 55.2924ZM206.565 55.2924C206.565 64.6937 198.759 72.6125 188.759 72.6125C178.759 72.6125 170.953 64.6937 170.953 55.2924C170.953 45.8911 178.759 37.9723 188.759 37.9723C198.759 37.9723 206.565 45.8911 206.565 55.2924Z" fill="#50C8FC"/>
<path d="M21.4584 117.787C20.2876 118.436 19.8641 119.91 20.5124 121.081C21.1606 122.252 22.6353 122.676 23.806 122.027L35.0483 115.802C36.2191 115.154 36.6427 113.679 35.9944 112.508L30.9431 103.386L40.0656 98.3348C41.2363 97.6865 41.6599 96.2119 41.0116 95.0411L35.9604 85.9187L45.0828 80.8675C46.2536 80.2192 46.6771 78.7446 46.0288 77.5738C45.3806 76.403 43.9059 75.9795 42.7352 76.6277L31.4929 82.8528C30.3221 83.5011 29.8985 84.9757 30.5468 86.1465L35.5981 95.2689L26.4756 100.32C25.3049 100.968 24.8813 102.443 25.5296 103.614L30.5808 112.736L21.4584 117.787Z" fill="#A996FF"/>
<path d="M181.286 216.533C183.185 212.756 184.136 208.574 184.055 204.347C183.994 201.129 183.337 197.959 182.125 194.995C181.495 193.453 182.007 191.623 183.466 190.818C184.925 190.013 186.775 190.539 187.439 192.068C189.105 195.902 190.008 200.034 190.088 204.232C190.187 209.439 189.016 214.592 186.676 219.244C184.336 223.897 180.898 227.909 176.659 230.934C173.241 233.374 169.385 235.112 165.314 236.061C163.691 236.439 162.166 235.268 161.942 233.617C161.718 231.965 162.882 230.463 164.496 230.049C167.597 229.255 170.534 227.892 173.154 226.023C176.595 223.567 179.386 220.31 181.286 216.533Z" fill="#A996FF"/>
<path d="M71.077 16.3564C69.7069 17.3046 69.3648 19.184 70.313 20.5541L84.0474 40.401C84.9955 41.7711 86.8749 42.1132 88.245 41.165L108.092 27.4307C109.462 26.4825 109.804 24.6031 108.856 23.233L95.1216 3.38614C94.1734 2.016 92.2941 1.67392 90.9239 2.62208L71.077 16.3564Z" fill="#FF75CB"/>
<path fill-rule="evenodd" clip-rule="evenodd" d="M81.0429 189.23C81.0429 198.415 73.2349 205.86 63.6032 205.86C53.9716 205.86 46.1636 198.415 46.1636 189.23C46.1636 180.046 53.9716 172.601 63.6032 172.601C73.2349 172.601 81.0429 180.046 81.0429 189.23ZM74.8144 189.23C74.8144 194.976 69.8994 199.815 63.6032 199.815C57.3071 199.815 52.392 194.976 52.392 189.23C52.392 183.485 57.3071 178.646 63.6032 178.646C69.8994 178.646 74.8144 183.485 74.8144 189.23Z" fill="#50C8FC"/>
</svg>
