<svg width="40" height="32" viewBox="0 0 40 32" fill="none" xmlns="http://www.w3.org/2000/svg">
<path d="M31.6665 21.1667C32.2188 21.1667 32.6665 20.719 32.6665 20.1667C32.6665 19.6144 32.2188 19.1667 31.6665 19.1667V21.1667ZM26.6665 19.1667C26.1142 19.1667 25.6665 19.6144 25.6665 20.1667C25.6665 20.719 26.1142 21.1667 26.6665 21.1667V19.1667ZM8.33317 19.1667C7.78089 19.1667 7.33317 19.6144 7.33317 20.1667C7.33317 20.719 7.78089 21.1667 8.33317 21.1667V19.1667ZM12.4998 21.1667C13.0521 21.1667 13.4998 20.719 13.4998 20.1667C13.4998 19.6144 13.0521 19.1667 12.4998 19.1667V21.1667ZM29.3042 2.61835L28.4467 3.13284V3.13284L29.3042 2.61835ZM32.4032 7.78338L33.2607 7.26888V7.26888L32.4032 7.78338ZM36.823 16.1565L36.1158 16.8636V16.8636L36.823 16.1565ZM37.5668 16.9003L38.2739 16.1932V16.1932L37.5668 16.9003ZM2.43287 16.9003L1.72576 16.1932L1.72576 16.1932L2.43287 16.9003ZM3.17672 16.1565L3.88383 16.8636H3.88383L3.17672 16.1565ZM7.59647 7.78338L6.73898 7.26888L7.59647 7.78338ZM10.6955 2.61835L11.553 3.13284L10.6955 2.61835ZM37.3059 13.1803L36.8587 12.2859V12.2859L37.3059 13.1803ZM2.69376 13.1803L3.14097 12.2859H3.14097L2.69376 13.1803ZM31.6665 19.1667H26.6665V21.1667H31.6665V19.1667ZM8.33317 21.1667H12.4998V19.1667H8.33317V21.1667ZM13.5538 2H26.4459V0H13.5538V2ZM28.4467 3.13284L31.5457 8.29787L33.2607 7.26888L30.1617 2.10385L28.4467 3.13284ZM35.1407 10.3333H36.2731V8.33333H35.1407V10.3333ZM36.1158 16.8636L36.8597 17.6074L38.2739 16.1932L37.5301 15.4493L36.1158 16.8636ZM37.3332 18.7505V23.1548H39.3332V18.7505H37.3332ZM35.6665 27.1785V27.6667H37.6665V27.1785H35.6665ZM33.3332 30H30.8332V32H33.3332V30ZM25.8332 25H14.1665V27H25.8332V25ZM9.1665 30H6.6665V32H9.1665V30ZM4.33317 27.6667V27.1785H2.33317V27.6667H4.33317ZM2.6665 23.1548V18.7505H0.666504V23.1548H2.6665ZM3.13997 17.6074L3.88383 16.8636L2.46961 15.4493L1.72576 16.1932L3.13997 17.6074ZM2.6665 11.5182V11.3934H0.666504V11.5182H2.6665ZM3.72662 10.3333H4.85896V8.33333H3.72662V10.3333ZM8.45397 8.29788L11.553 3.13284L9.838 2.10385L6.73898 7.26888L8.45397 8.29788ZM37.3332 11.3934V11.5182H39.3332V11.3934H37.3332ZM37.3332 11.5182C37.3332 11.8433 37.1495 12.1405 36.8587 12.2859L37.7531 14.0747C38.7215 13.5905 39.3332 12.6008 39.3332 11.5182H37.3332ZM4.85896 10.3333C6.33162 10.3333 7.69629 9.56067 8.45397 8.29788L6.73898 7.26888C6.34275 7.92927 5.62909 8.33333 4.85896 8.33333V10.3333ZM2.6665 11.3934C2.6665 10.808 3.14113 10.3333 3.72662 10.3333V8.33333C2.03656 8.33333 0.666504 9.70339 0.666504 11.3934H2.6665ZM3.14097 12.2859C2.85019 12.1405 2.6665 11.8433 2.6665 11.5182H0.666504C0.666504 12.6008 1.27819 13.5905 2.24654 14.0747L3.14097 12.2859ZM3.88383 16.8636C5.26337 15.484 4.88597 13.1584 3.14097 12.2859L2.24654 14.0747C2.77054 14.3367 2.88387 15.0351 2.46961 15.4493L3.88383 16.8636ZM2.6665 18.7505C2.6665 18.3217 2.83682 17.9106 3.13998 17.6074L1.72576 16.1932C1.04753 16.8714 0.666504 17.7913 0.666504 18.7505H2.6665ZM3.20694 24.4596C2.86091 24.1135 2.6665 23.6442 2.6665 23.1548H0.666504C0.666504 24.1746 1.07162 25.1527 1.79273 25.8738L3.20694 24.4596ZM4.33317 27.1785C4.33317 26.1587 3.92805 25.1807 3.20694 24.4596L1.79273 25.8738C2.13877 26.2198 2.33317 26.6891 2.33317 27.1785H4.33317ZM6.6665 30C5.37784 30 4.33317 28.9553 4.33317 27.6667H2.33317C2.33317 30.0599 4.27327 32 6.6665 32V30ZM10.6665 28.5C10.6665 29.3284 9.99493 30 9.1665 30V32C11.0995 32 12.6665 30.433 12.6665 28.5H10.6665ZM14.1665 25C12.2335 25 10.6665 26.567 10.6665 28.5H12.6665C12.6665 27.6716 13.3381 27 14.1665 27V25ZM29.3332 28.5C29.3332 26.567 27.7662 25 25.8332 25V27C26.6616 27 27.3332 27.6716 27.3332 28.5H29.3332ZM30.8332 30C30.0047 30 29.3332 29.3284 29.3332 28.5H27.3332C27.3332 30.433 28.9002 32 30.8332 32V30ZM35.6665 27.6667C35.6665 28.9553 34.6218 30 33.3332 30V32C35.7264 32 37.6665 30.0599 37.6665 27.6667H35.6665ZM36.7927 24.4596C36.0716 25.1807 35.6665 26.1587 35.6665 27.1785H37.6665C37.6665 26.6891 37.8609 26.2198 38.2069 25.8738L36.7927 24.4596ZM37.3332 23.1548C37.3332 23.6442 37.1388 24.1135 36.7927 24.4596L38.2069 25.8738C38.9281 25.1527 39.3332 24.1746 39.3332 23.1548H37.3332ZM36.8597 17.6074C37.1629 17.9106 37.3332 18.3217 37.3332 18.7505H39.3332C39.3332 17.7913 38.9521 16.8714 38.2739 16.1932L36.8597 17.6074ZM37.5301 15.4493C37.1158 15.0351 37.2291 14.3367 37.7531 14.0747L36.8587 12.2859C35.1137 13.1584 34.7363 15.484 36.1158 16.8636L37.5301 15.4493ZM36.2731 10.3333C36.8585 10.3333 37.3332 10.808 37.3332 11.3934H39.3332C39.3332 9.70339 37.9631 8.33333 36.2731 8.33333V10.3333ZM31.5457 8.29787C32.3034 9.56067 33.6681 10.3333 35.1407 10.3333V8.33333C34.3706 8.33333 33.6569 7.92926 33.2607 7.26888L31.5457 8.29787ZM26.4459 2C27.2655 2 28.025 2.43003 28.4467 3.13284L30.1617 2.10385C29.3785 0.798628 27.968 0 26.4459 0V2ZM13.5538 0C12.0317 0 10.6211 0.798629 9.838 2.10385L11.553 3.13284C11.9747 2.43003 12.7342 2 13.5538 2V0Z" fill="#A996FF"/>
</svg>
